RobotoCondensed-Regular.ufo
<glyph name="J" format="2">
  <advance width="990"/>
  <unicode hex="004A"/>
  <guideline x="0.0" y="901.0" angle="0.0" identifier="LlNEztHcyb"/>
  <guideline x="0.0" y="555.0" angle="0.0" identifier="iTNDOY8UO6"/>
  <anchor x="727" y="1599" name="top"/>
  <anchor x="450" y="-10" name="bottom"/>
  <anchor x="970" y="1600" name="top_dd"/>
  <anchor x="970" y="-407" name="bottom_dd"/>
  <anchor x="970" y="1599" name="top0315"/>
  <anchor x="727" y="1599" name="parent_top"/>
  <outline>
    <contour>
      <point x="660" y="425" type="line"/>
      <point x="660" y="236"/>
      <point x="571" y="137"/>
      <point x="451" y="137" type="curve" smooth="yes"/>
      <point x="333" y="137"/>
      <point x="243" y="219"/>
      <point x="243" y="403" type="curve"/>
      <point x="59" y="403" type="line"/>
      <point x="59" y="116"/>
      <point x="224" y="-20"/>
      <point x="451" y="-20" type="curve" smooth="yes"/>
      <point x="681" y="-20"/>
      <point x="843" y="137"/>
      <point x="843" y="425" type="curve"/>
      <point x="843" y="1456" type="line"/>
      <point x="660" y="1456" type="line"/>
    </contour>
  </outline>
</glyph>
<glyph name="T" format="2">
  <advance width="1066"/>
  <unicode hex="0054"/>
  <anchor x="534" y="1600" name="top"/>
  <anchor x="536" y="0" name="bottom"/>
  <anchor x="1046" y="1600" name="top_dd"/>
  <anchor x="1046" y="-407" name="bottom_dd"/>
  <anchor x="1046" y="1600" name="top0315"/>
  <anchor x="534" y="1600" name="parent_top"/>
  <outline>
    <contour>
      <point x="625" y="1456" type="line"/>
      <point x="443" y="1456" type="line"/>
      <point x="443" y="0" type="line"/>
      <point x="625" y="0" type="line"/>
    </contour>
    <contour>
      <point x="1008" y="1456" type="line"/>
      <point x="61" y="1456" type="line"/>
      <point x="61" y="1298" type="line"/>
      <point x="1008" y="1298" type="line"/>
    </contour>
  </outline>
</glyph>
<glyph name="grave" format="2">
  <advance width="633"/>
  <unicode hex="0060"/>
  <anchor x="369" y="1641" name="mkmktop_acc"/>
  <outline>
    <contour>
      <point x="281" y="1536" type="line"/>
      <point x="57" y="1536" type="line"/>
      <point x="315" y="1242" type="line"/>
      <point x="474" y="1242" type="line"/>
    </contour>
  </outline>
</glyph>
<glyph name="oe" format="2">
  <advance width="1592"/>
  <unicode hex="0153"/>
  <anchor x="809" y="1290" name="top"/>
  <anchor x="809" y="-1" name="bottom"/>
  <anchor x="1572" y="1600" name="top_dd"/>
  <anchor x="1572" y="-407" name="bottom_dd"/>
  <anchor x="1572" y="1290" name="top0315"/>
  <anchor x="809" y="1290" name="parent_top"/>
  <outline>
    <contour>
      <point x="1168" y="-21" type="curve"/>
      <point x="1336" y="-21"/>
      <point x="1438" y="49"/>
      <point x="1491" y="113" type="curve"/>
      <point x="1422" y="239" type="line"/>
      <point x="1367" y="179"/>
      <point x="1287" y="131"/>
      <point x="1168" y="131" type="curve" smooth="yes"/>
      <point x="1004" y="131"/>
      <point x="928" y="305"/>
      <point x="928" y="520" type="curve" smooth="yes"/>
      <point x="928" y="564" type="line" smooth="yes"/>
      <point x="928" y="778"/>
      <point x="1017" y="950"/>
      <point x="1140" y="950" type="curve"/>
      <point x="1282" y="950"/>
      <point x="1338" y="820"/>
      <point x="1338" y="675" type="curve"/>
      <point x="1338" y="649" type="line"/>
      <point x="855" y="649" type="line"/>
      <point x="855" y="498" type="line"/>
      <point x="1515" y="498" type="line"/>
      <point x="1515" y="620" type="line" smooth="yes"/>
      <point x="1515" y="902"/>
      <point x="1400" y="1102"/>
      <point x="1140" y="1102" type="curve" smooth="yes"/>
      <point x="937" y="1104"/>
      <point x="751" y="880"/>
      <point x="751" y="564" type="curve" smooth="yes"/>
      <point x="751" y="520" type="line" smooth="yes"/>
      <point x="751" y="205"/>
      <point x="907" y="-21"/>
    </contour>
    <contour>
      <point x="103" y="529" type="line"/>
      <point x="103" y="216"/>
      <point x="252" y="-21"/>
      <point x="511" y="-21" type="curve" smooth="yes"/>
      <point x="769" y="-21"/>
      <point x="918" y="216"/>
      <point x="918" y="529" type="curve"/>
      <point x="918" y="552" type="line"/>
      <point x="918" y="865"/>
      <point x="769" y="1102"/>
      <point x="509" y="1102" type="curve" smooth="yes"/>
      <point x="252" y="1102"/>
      <point x="103" y="865"/>
      <point x="103" y="552" type="curve"/>
    </contour>
    <contour>
      <point x="279" y="552" type="line"/>
      <point x="279" y="764"/>
      <point x="348" y="950"/>
      <point x="509" y="950" type="curve" smooth="yes"/>
      <point x="672" y="950"/>
      <point x="741" y="764"/>
      <point x="741" y="552" type="curve"/>
      <point x="741" y="529" type="line"/>
      <point x="741" y="314"/>
      <point x="672" y="131"/>
      <point x="511" y="131" type="curve" smooth="yes"/>
      <point x="348" y="131"/>
      <point x="279" y="314"/>
      <point x="279" y="529" type="curve"/>
    </contour>
  </outline>
</glyph>
<glyph name="Phook" format="2">
  <advance width="1312"/>
  <unicode hex="01A4"/>
  <outline>
    <contour>
      <point x="490" y="1298" type="line"/>
      <point x="490" y="1456" type="line"/>
      <point x="338" y="1456" type="line" smooth="yes"/>
      <point x="149" y="1456"/>
      <point x="46" y="1363"/>
      <point x="46" y="1173" type="curve" smooth="yes"/>
      <point x="46" y="1138"/>
      <point x="52" y="1089"/>
      <point x="60" y="1057" type="curve"/>
      <point x="201" y="1058" type="line"/>
      <point x="196" y="1078"/>
      <point x="195" y="1106"/>
      <point x="195" y="1125" type="curve" smooth="yes"/>
      <point x="195" y="1238"/>
      <point x="232" y="1298"/>
      <point x="338" y="1298" type="curve" smooth="yes"/>
    </contour>
    <contour>
      <point x="799" y="571" type="line"/>
      <point x="1079" y="571"/>
      <point x="1234" y="731"/>
      <point x="1234" y="1012" type="curve"/>
      <point x="1234" y="1270"/>
      <point x="1079" y="1456"/>
      <point x="799" y="1456" type="curve"/>
      <point x="335" y="1456" type="line"/>
      <point x="335" y="0" type="line"/>
      <point x="518" y="0" type="line"/>
      <point x="518" y="1298" type="line"/>
      <point x="799" y="1298" type="line"/>
      <point x="977" y="1298"/>
      <point x="1050" y="1160"/>
      <point x="1050" y="1010" type="curve"/>
      <point x="1050" y="845"/>
      <point x="977" y="728"/>
      <point x="799" y="728" type="curve"/>
      <point x="480" y="728" type="line"/>
      <point x="480" y="571" type="line"/>
    </contour>
  </outline>
</glyph>
<glyph name="thook" format="2">
  <advance width="617"/>
  <unicode hex="01AD"/>
  <outline>
    <contour>
      <point x="380" y="1115" type="line"/>
      <point x="380" y="1260" type="line" smooth="yes"/>
      <point x="380" y="1381"/>
      <point x="429" y="1427"/>
      <point x="503" y="1427" type="curve" smooth="yes"/>
      <point x="514" y="1427"/>
      <point x="533" y="1424"/>
      <point x="547" y="1419" type="curve"/>
      <point x="546" y="1546" type="line"/>
      <point x="524" y="1556"/>
      <point x="487" y="1562"/>
      <point x="463" y="1562" type="curve" smooth="yes"/>
      <point x="327" y="1562"/>
      <point x="203" y="1454"/>
      <point x="203" y="1260" type="curve" smooth="yes"/>
      <point x="203" y="1115" type="line"/>
    </contour>
    <contour>
      <point x="542" y="1082" type="line"/>
      <point x="38" y="1082" type="line"/>
      <point x="38" y="940" type="line"/>
      <point x="542" y="940" type="line"/>
    </contour>
    <contour>
      <point x="203" y="1142" type="line"/>
      <point x="203" y="297" type="line"/>
      <point x="203" y="67"/>
      <point x="302" y="-20"/>
      <point x="417" y="-20" type="curve" smooth="yes"/>
      <point x="479" y="-20"/>
      <point x="518" y="-9"/>
      <point x="542" y="0" type="curve"/>
      <point x="542" y="151" type="line"/>
      <point x="531" y="147"/>
      <point x="497" y="139"/>
      <point x="472" y="139" type="curve" smooth="yes"/>
      <point x="424" y="139"/>
      <point x="380" y="170"/>
      <point x="380" y="296" type="curve"/>
      <point x="380" y="1142" type="line"/>
    </contour>
  </outline>
</glyph>
<glyph name="uni02A9" format="2">
  <advance width="1484"/>
  <unicode hex="02A9"/>
  <anchor x="1006" y="1700" name="top"/>
  <anchor x="1006" y="-447" name="bottom"/>
  <anchor x="1464" y="1700" name="top0315"/>
  <anchor x="1006" y="1700" name="parent_top"/>
  <outline>
    <contour>
      <point x="802" y="1082" type="line"/>
      <point x="626" y="1082" type="line"/>
      <point x="626" y="0" type="line"/>
      <point x="802" y="0" type="line"/>
    </contour>
    <contour>
      <point x="760" y="582" type="line"/>
      <point x="759" y="777"/>
      <point x="865" y="946"/>
      <point x="1005" y="946" type="curve" smooth="yes"/>
      <point x="1118" y="946"/>
      <point x="1175" y="865"/>
      <point x="1175" y="680" type="curve" smooth="yes"/>
      <point x="1175" y="0" type="line"/>
      <point x="1352" y="0" type="line"/>
      <point x="1352" y="678" type="line" smooth="yes"/>
      <point x="1352" y="977"/>
      <point x="1238" y="1102"/>
      <point x="1060" y="1102" type="curve" smooth="yes"/>
      <point x="836" y="1102"/>
      <point x="686" y="882"/>
      <point x="688" y="585" type="curve"/>
    </contour>
    <contour>
      <point x="1175" y="84" type="line"/>
      <point x="1175" y="-64" type="line" smooth="yes"/>
      <point x="1175" y="-186"/>
      <point x="1125" y="-231"/>
      <point x="1051" y="-231" type="curve" smooth="yes"/>
      <point x="1040" y="-231"/>
      <point x="1022" y="-229"/>
      <point x="1008" y="-223" type="curve"/>
      <point x="1009" y="-351" type="line"/>
      <point x="1031" y="-360"/>
      <point x="1067" y="-366"/>
      <point x="1091" y="-366" type="curve" smooth="yes"/>
      <point x="1228" y="-366"/>
      <point x="1352" y="-259"/>
      <point x="1352" y="-64" type="curve" smooth="yes"/>
      <point x="1352" y="84" type="line"/>
    </contour>
    <contour>
      <point x="388" y="0" type="line"/>
      <point x="388" y="1196" type="line" smooth="yes"/>
      <point x="388" y="1327"/>
      <point x="443" y="1399"/>
      <point x="539" y="1399" type="curve" smooth="yes"/>
      <point x="565" y="1399"/>
      <point x="598" y="1396"/>
      <point x="620" y="1390" type="curve"/>
      <point x="628" y="1541" type="line"/>
      <point x="594" y="1551"/>
      <point x="557" y="1557"/>
      <point x="521" y="1557" type="curve" smooth="yes"/>
      <point x="329" y="1557"/>
      <point x="211" y="1429"/>
      <point x="211" y="1196" type="curve" smooth="yes"/>
      <point x="211" y="0" type="line"/>
    </contour>
    <contour>
      <point x="639" y="1082" type="line"/>
      <point x="70" y="1082" type="line"/>
      <point x="70" y="940" type="line"/>
      <point x="639" y="940" type="line"/>
    </contour>
  </outline>
</glyph>
<glyph name="brevesubnosp" format="2">
  <unicode hex="032E"/>
  <anchor x="-475" y="0" name="_bottom"/>
  <anchor x="-475" y="-363" name="bottom"/>
  <outline>
    <contour>
      <point x="-362" y="-96" type="line"/>
      <point x="-362" y="-175"/>
      <point x="-393" y="-245"/>
      <point x="-475" y="-245" type="curve" smooth="yes"/>
      <point x="-557" y="-245"/>
      <point x="-588" y="-175"/>
      <point x="-588" y="-96" type="curve"/>
      <point x="-730" y="-96" type="line"/>
      <point x="-730" y="-253"/>
      <point x="-632" y="-363"/>
      <point x="-475" y="-363" type="curve" smooth="yes"/>
      <point x="-318" y="-363"/>
      <point x="-220" y="-253"/>
      <point x="-220" y="-96" type="curve"/>
    </contour>
  </outline>
</glyph>
<glyph name="Omega" format="2">
  <advance width="1191"/>
  <unicode hex="03A9"/>
  <anchor x="131" y="1456.0" name="GRK_topleft"/>
  <outline>
    <contour>
      <point x="103" y="0" type="line"/>
      <point x="517" y="0" type="line"/>
      <point x="517" y="434" type="line"/>
      <point x="337" y="476"/>
      <point x="285" y="639"/>
      <point x="285" y="841" type="curve"/>
      <point x="285" y="897" type="line"/>
      <point x="285" y="1168"/>
      <point x="377" y="1312"/>
      <point x="595" y="1312" type="curve" smooth="yes"/>
      <point x="802" y="1312"/>
      <point x="905" y="1168"/>
      <point x="905" y="897" type="curve"/>
      <point x="905" y="841" type="line"/>
      <point x="905" y="639"/>
      <point x="851" y="476"/>
      <point x="672" y="434" type="curve"/>
      <point x="672" y="0" type="line"/>
      <point x="1087" y="0" type="line"/>
      <point x="1087" y="152" type="line"/>
      <point x="834" y="152" type="line"/>
      <point x="834" y="322" type="line"/>
      <point x="1014" y="405"/>
      <point x="1087" y="563"/>
      <point x="1087" y="841" type="curve"/>
      <point x="1087" y="897" type="line"/>
      <point x="1087" y="1269"/>
      <point x="898" y="1476"/>
      <point x="595" y="1476" type="curve"/>
      <point x="294" y="1476"/>
      <point x="103" y="1269"/>
      <point x="103" y="897" type="curve"/>
      <point x="103" y="841" type="line"/>
      <point x="103" y="563"/>
      <point x="176" y="405"/>
      <point x="355" y="322" type="curve"/>
      <point x="355" y="152" type="line"/>
      <point x="103" y="152" type="line"/>
    </contour>
  </outline>
</glyph>
<glyph name="mu" format="2">
  <advance width="1021"/>
  <unicode hex="03BC"/>
  <outline>
    <contour>
      <point x="133" y="-416" type="line"/>
      <point x="309" y="-416" type="line"/>
      <point x="309" y="70" type="line"/>
      <point x="349" y="13"/>
      <point x="407" y="-20"/>
      <point x="473" y="-20" type="curve"/>
      <point x="588" y="-20"/>
      <point x="645" y="64"/>
      <point x="676" y="131" type="curve"/>
      <point x="680" y="131" type="line"/>
      <point x="698" y="24"/>
      <point x="752" y="-19"/>
      <point x="858" y="-19" type="curve"/>
      <point x="902" y="-19"/>
      <point x="936" y="-10"/>
      <point x="957" y="2" type="curve"/>
      <point x="957" y="144" type="line"/>
      <point x="938" y="135"/>
      <point x="925" y="131"/>
      <point x="904" y="131" type="curve"/>
      <point x="857" y="131"/>
      <point x="840" y="149"/>
      <point x="840" y="241" type="curve" smooth="yes"/>
      <point x="840" y="1082" type="line"/>
      <point x="663" y="1082" type="line"/>
      <point x="663" y="353" type="line" smooth="yes"/>
      <point x="663" y="204"/>
      <point x="582" y="137"/>
      <point x="484" y="137" type="curve" smooth="yes"/>
      <point x="414" y="137"/>
      <point x="341" y="167"/>
      <point x="309" y="254" type="curve"/>
      <point x="309" y="1082" type="line"/>
      <point x="133" y="1082" type="line"/>
    </contour>
  </outline>
</glyph>
<glyph name="Kaisymbol" format="2">
  <advance width="1117"/>
  <unicode hex="03CF"/>
  <outline>
    <contour>
      <point x="484" y="-590" type="line"/>
      <point x="1109" y="0" type="line"/>
      <point x="600" y="815" type="line"/>
      <point x="1073" y="1456" type="line"/>
      <point x="853" y="1456" type="line"/>
      <point x="461" y="912" type="line"/>
      <point x="341" y="755" type="line"/>
      <point x="341" y="1456" type="line"/>
      <point x="157" y="1456" type="line"/>
      <point x="157" y="0" type="line"/>
      <point x="341" y="0" type="line"/>
      <point x="341" y="499" type="line"/>
      <point x="484" y="671" type="line"/>
      <point x="885" y="8" type="line"/>
      <point x="374" y="-467" type="line"/>
    </contour>
  </outline>
</glyph>
<glyph name="uni047B" format="2">
  <advance width="1021"/>
  <unicode hex="047B"/>
  <anchor x="517" y="1360" name="top"/>
  <anchor x="1001" y="1360" name="top0315"/>
  <anchor x="517" y="1360" name="parent_top"/>
  <outline>
    <contour>
      <point x="599" y="1206" type="line"/>
      <point x="423" y="1206" type="line"/>
      <point x="423" y="838" type="line"/>
      <point x="599" y="838" type="line"/>
    </contour>
    <contour>
      <point x="599" y="248" type="line"/>
      <point x="423" y="248" type="line"/>
      <point x="423" y="-119" type="line"/>
      <point x="599" y="-119" type="line"/>
    </contour>
    <contour>
      <point x="98" y="529" type="line"/>
      <point x="98" y="216"/>
      <point x="256" y="-20"/>
      <point x="515" y="-20" type="curve" smooth="yes"/>
      <point x="773" y="-20"/>
      <point x="931" y="216"/>
      <point x="931" y="529" type="curve"/>
      <point x="931" y="552" type="line"/>
      <point x="931" y="865"/>
      <point x="773" y="1102"/>
      <point x="513" y="1102" type="curve" smooth="yes"/>
      <point x="256" y="1102"/>
      <point x="98" y="865"/>
      <point x="98" y="552" type="curve"/>
    </contour>
    <contour>
      <point x="274" y="552" type="line"/>
      <point x="274" y="764"/>
      <point x="351" y="950"/>
      <point x="513" y="950" type="curve" smooth="yes"/>
      <point x="676" y="950"/>
      <point x="754" y="764"/>
      <point x="754" y="552" type="curve"/>
      <point x="754" y="529" type="line"/>
      <point x="754" y="314"/>
      <point x="676" y="132"/>
      <point x="515" y="132" type="curve" smooth="yes"/>
      <point x="351" y="132"/>
      <point x="274" y="314"/>
      <point x="274" y="529" type="curve"/>
    </contour>
  </outline>
</glyph>
<glyph name="uni0526" format="2">
  <advance width="1308"/>
  <unicode hex="0526"/>
  <anchor x="1200" y="1612" name="top0315"/>
  <outline>
    <contour>
      <point x="310" y="0" type="line"/>
      <point x="310" y="693" type="line"/>
      <point x="409" y="727"/>
      <point x="516" y="748"/>
      <point x="633" y="748" type="curve" smooth="yes"/>
      <point x="791" y="748"/>
      <point x="866" y="682"/>
      <point x="866" y="455" type="curve" smooth="yes"/>
      <point x="866" y="0" type="line"/>
      <point x="1037" y="0" type="line"/>
      <point x="1037" y="-359" type="line"/>
      <point x="1214" y="-359" type="line"/>
      <point x="1214" y="154" type="line"/>
      <point x="1050" y="154" type="line"/>
      <point x="1050" y="455" type="line" smooth="yes"/>
      <point x="1050" y="783"/>
      <point x="894" y="906"/>
      <point x="633" y="906" type="curve" smooth="yes"/>
      <point x="491" y="906"/>
      <point x="403" y="884"/>
      <point x="310" y="852" type="curve"/>
      <point x="310" y="1456" type="line"/>
      <point x="126" y="1456" type="line"/>
      <point x="126" y="0" type="line"/>
    </contour>
  </outline>
</glyph>
<glyph name="uni1D23" format="2">
  <advance width="883"/>
  <unicode hex="1D23"/>
  <anchor x="455" y="1290" name="top"/>
  <anchor x="455" y="0" name="bottom"/>
  <anchor x="863" y="1290" name="top0315"/>
  <anchor x="455" y="1290" name="parent_top"/>
  <outline>
    <contour>
      <point x="307" y="632" type="line"/>
      <point x="307" y="520" type="line"/>
      <point x="468" y="520" type="line" smooth="yes"/>
      <point x="584" y="520"/>
      <point x="636" y="445"/>
      <point x="636" y="325" type="curve" smooth="yes"/>
      <point x="636" y="211"/>
      <point x="576" y="129"/>
      <point x="456" y="129" type="curve" smooth="yes"/>
      <point x="341" y="129"/>
      <point x="267" y="221"/>
      <point x="267" y="320" type="curve"/>
      <point x="91" y="320" type="line"/>
      <point x="91" y="85"/>
      <point x="276" y="-20"/>
      <point x="456" y="-20" type="curve" smooth="yes"/>
      <point x="668" y="-20"/>
      <point x="814" y="99"/>
      <point x="814" y="326" type="curve" smooth="yes"/>
      <point x="814" y="507"/>
      <point x="696" y="632"/>
      <point x="482" y="632" type="curve" smooth="yes"/>
    </contour>
    <contour>
      <point x="101" y="1082" type="line"/>
      <point x="101" y="929" type="line"/>
      <point x="566" y="929" type="line"/>
      <point x="307" y="638" type="line"/>
      <point x="307" y="522" type="line"/>
      <point x="394" y="522" type="line"/>
      <point x="794" y="964" type="line"/>
      <point x="794" y="1082" type="line"/>
    </contour>
  </outline>
</glyph>
<glyph name="uni1D85" format="2">
  <advance width="537"/>
  <unicode hex="1D85"/>
  <anchor x="261" y="1700" name="top"/>
  <anchor x="261" y="-447" name="bottom"/>
  <anchor x="517" y="1700" name="top0315"/>
  <anchor x="261" y="1700" name="parent_top"/>
  <outline>
    <contour>
      <point x="313" y="152" type="line"/>
      <point x="313" y="-135" type="line" smooth="yes"/>
      <point x="313" y="-257"/>
      <point x="263" y="-302"/>
      <point x="189" y="-302" type="curve" smooth="yes"/>
      <point x="178" y="-302"/>
      <point x="160" y="-299"/>
      <point x="146" y="-294" type="curve"/>
      <point x="146" y="-422" type="line"/>
      <point x="168" y="-431"/>
      <point x="205" y="-437"/>
      <point x="229" y="-437" type="curve" smooth="yes"/>
      <point x="366" y="-437"/>
      <point x="490" y="-330"/>
      <point x="490" y="-135" type="curve" smooth="yes"/>
      <point x="490" y="152" type="line"/>
    </contour>
    <contour>
      <point x="348" y="1536" type="line"/>
      <point x="171" y="1536" type="line"/>
      <point x="171" y="0" type="line"/>
      <point x="348" y="0" type="line"/>
    </contour>
  </outline>
</glyph>
<glyph name="uni1DD3" format="2">
  <unicode hex="1DD3"/>
  <guideline x="-754.0" y="0.0" angle="90.0" identifier="bXIRtwQ15q"/>
  <anchor x="-476" y="1170" name="_top"/>
  <outline>
    <contour>
      <point x="-538" y="1387" type="line"/>
      <point x="-538" y="1326"/>
      <point x="-558" y="1294"/>
      <point x="-608" y="1294" type="curve" smooth="yes"/>
      <point x="-654" y="1294"/>
      <point x="-684" y="1328"/>
      <point x="-684" y="1387" type="curve"/>
      <point x="-794" y="1387" type="line"/>
      <point x="-794" y="1268"/>
      <point x="-719" y="1192"/>
      <point x="-608" y="1192" type="curve" smooth="yes"/>
      <point x="-496" y="1192"/>
      <point x="-440" y="1256"/>
      <point x="-440" y="1387" type="curve"/>
    </contour>
    <contour>
      <point x="-275" y="1387" type="line"/>
      <point x="-275" y="1326"/>
      <point x="-295" y="1294"/>
      <point x="-345" y="1294" type="curve" smooth="yes"/>
      <point x="-391" y="1294"/>
      <point x="-431" y="1328"/>
      <point x="-431" y="1387" type="curve"/>
      <point x="-527" y="1387" type="line"/>
      <point x="-527" y="1268"/>
      <point x="-456" y="1192"/>
      <point x="-345" y="1192" type="curve" smooth="yes"/>
      <point x="-233" y="1192"/>
      <point x="-159" y="1256"/>
      <point x="-159" y="1387" type="curve"/>
    </contour>
  </outline>
</glyph>
<glyph name="afii57596" format="2">
  <unicode hex="200E"/>
  <outline>
    <contour>
      <point x="-680" y="1158" type="line"/>
      <point x="-262" y="1158" type="line"/>
      <point x="-262" y="1275" type="line"/>
      <point x="-680" y="1275" type="line"/>
    </contour>
    <contour>
      <point x="-367" y="994" type="line"/>
      <point x="-154" y="1216" type="line"/>
      <point x="-237" y="1271" type="line"/>
      <point x="-519" y="994" type="line"/>
    </contour>
    <contour>
      <point x="-510" y="1456" type="line"/>
      <point x="-242" y="1165" type="line"/>
      <point x="-154" y="1216" type="line"/>
      <point x="-358" y="1456" type="line"/>
    </contour>
    <contour>
      <point x="-680" y="-200" type="line"/>
      <point x="-572" y="-200" type="line"/>
      <point x="-572" y="1275" type="line"/>
      <point x="-680" y="1275" type="line"/>
    </contour>
  </outline>
</glyph>
<glyph name="uni2C79" format="2">
  <advance width="664"/>
  <unicode hex="2C79"/>
  <guideline x="0.0" y="1557.0" angle="0.0" identifier="mn2dR4PQxp"/>
  <outline>
    <contour>
      <point x="501" y="1033" type="line"/>
      <point x="501" y="1249" type="line" smooth="yes"/>
      <point x="501" y="1443"/>
      <point x="377" y="1551"/>
      <point x="240" y="1551" type="curve" smooth="yes"/>
      <point x="216" y="1551"/>
      <point x="180" y="1544"/>
      <point x="158" y="1535" type="curve"/>
      <point x="157" y="1408" type="line"/>
      <point x="171" y="1413"/>
      <point x="189" y="1416"/>
      <point x="200" y="1416" type="curve" smooth="yes"/>
      <point x="274" y="1416"/>
      <point x="324" y="1370"/>
      <point x="324" y="1249" type="curve" smooth="yes"/>
      <point x="324" y="1033" type="line"/>
    </contour>
    <contour>
      <point x="324" y="170" type="line"/>
      <point x="329" y="0" type="line"/>
      <point x="501" y="0" type="line"/>
      <point x="501" y="1082" type="line"/>
      <point x="324" y="1082" type="line"/>
    </contour>
    <contour>
      <point x="55" y="-6" type="line"/>
      <point x="65" y="-12"/>
      <point x="104" y="-20"/>
      <point x="125" y="-20" type="curve"/>
      <point x="315" y="-20"/>
      <point x="397" y="198"/>
      <point x="397" y="458" type="curve"/>
      <point x="350" y="428" type="line"/>
      <point x="334" y="271"/>
      <point x="267" y="158"/>
      <point x="134" y="158" type="curve"/>
      <point x="103" y="158"/>
      <point x="83" y="160"/>
      <point x="54" y="166" type="curve"/>
    </contour>
  </outline>
</glyph>
<glyph name="uni2E23" format="2">
  <advance width="502"/>
  <unicode hex="2E23"/>
  <guideline x="0.0" y="677.0" angle="0.0" identifier="wzqWwNU06z"/>
  <guideline x="0.0" y="593.0" angle="0.0" identifier="wIGYuEDrXY"/>
  <outline>
    <contour>
      <point x="90" y="1304" type="line"/>
      <point x="245" y="1304" type="line"/>
      <point x="245" y="593" type="line"/>
      <point x="422" y="593" type="line"/>
      <point x="422" y="1456" type="line"/>
      <point x="90" y="1456" type="line"/>
    </contour>
  </outline>
</glyph>
<glyph name="uniA64E" format="2">
  <advance width="1335"/>
  <unicode hex="A64E"/>
  <outline>
    <contour>
      <point x="43" y="1304" type="line"/>
      <point x="404" y="1304" type="line"/>
      <point x="404" y="1456" type="line"/>
      <point x="43" y="1456" type="line"/>
    </contour>
    <contour>
      <point x="507" y="863" type="line"/>
      <point x="507" y="705" type="line"/>
      <point x="838" y="705" type="line"/>
      <point x="1004" y="705"/>
      <point x="1073" y="583"/>
      <point x="1073" y="437" type="curve"/>
      <point x="1073" y="290"/>
      <point x="1004" y="157"/>
      <point x="838" y="157" type="curve"/>
      <point x="546" y="157" type="line"/>
      <point x="546" y="1456" type="line"/>
      <point x="362" y="1456" type="line"/>
      <point x="362" y="0" type="line"/>
      <point x="838" y="0" type="line"/>
      <point x="1107" y="0"/>
      <point x="1257" y="179"/>
      <point x="1257" y="435" type="curve"/>
      <point x="1257" y="693"/>
      <point x="1107" y="863"/>
      <point x="838" y="863" type="curve"/>
    </contour>
  </outline>
</glyph>
<glyph name="uniA680" format="2">
  <advance width="1352"/>
  <unicode hex="A680"/>
  <outline>
    <contour>
      <point x="519" y="871" type="curve" smooth="yes"/>
      <point x="560" y="1743" type="line"/>
      <point x="375" y="1743" type="line"/>
      <point x="334" y="871" type="line" smooth="yes"/>
      <point x="315" y="428"/>
      <point x="221" y="232"/>
      <point x="163" y="157" type="curve"/>
      <point x="113" y="157" type="line"/>
      <point x="113" y="0" type="line"/>
      <point x="189" y="0" type="line"/>
      <point x="353" y="56"/>
      <point x="495" y="343"/>
    </contour>
    <contour>
      <point x="1125" y="157" type="line"/>
      <point x="212" y="157" type="line"/>
      <point x="212" y="0" type="line"/>
      <point x="1125" y="0" type="line"/>
    </contour>
    <contour>
      <point x="1285" y="157" type="line"/>
      <point x="1101" y="157" type="line"/>
      <point x="1101" y="-357" type="line"/>
      <point x="1283" y="-357" type="line"/>
    </contour>
    <contour>
      <point x="240" y="157" type="line"/>
      <point x="56" y="157" type="line"/>
      <point x="57" y="-358" type="line"/>
      <point x="240" y="-358" type="line"/>
    </contour>
    <contour>
      <point x="953" y="1456" type="line"/>
      <point x="425" y="1456" type="line"/>
      <point x="425" y="1298" type="line"/>
      <point x="953" y="1298" type="line"/>
    </contour>
    <contour>
      <point x="1114" y="1456" type="line"/>
      <point x="930" y="1456" type="line"/>
      <point x="930" y="0" type="line"/>
      <point x="1114" y="0" type="line"/>
    </contour>
  </outline>
</glyph>
<glyph name="uniA69A" format="2">
  <advance width="1231"/>
  <unicode hex="A69A"/>
  <outline>
    <contour>
      <point x="686" y="1409" type="line"/>
      <point x="545" y="1409" type="line"/>
      <point x="545" y="73" type="line"/>
      <point x="686" y="73" type="line"/>
    </contour>
    <contour>
      <point x="1000" y="666" type="line"/>
      <point x="1000" y="818" type="line"/>
      <point x="230" y="818" type="line"/>
      <point x="230" y="666" type="line"/>
    </contour>
    <contour>
      <point x="1113" y="774" type="line"/>
      <point x="1113" y="1210"/>
      <point x="916" y="1476"/>
      <point x="615" y="1476" type="curve" smooth="yes"/>
      <point x="323" y="1476"/>
      <point x="117" y="1210"/>
      <point x="117" y="774" type="curve"/>
      <point x="117" y="682" type="line"/>
      <point x="117" y="245"/>
      <point x="325" y="-20"/>
      <point x="616" y="-20" type="curve" smooth="yes"/>
      <point x="917" y="-20"/>
      <point x="1113" y="245"/>
      <point x="1113" y="682" type="curve"/>
    </contour>
    <contour>
      <point x="930" y="682" type="line"/>
      <point x="930" y="333"/>
      <point x="817" y="143"/>
      <point x="616" y="143" type="curve" smooth="yes"/>
      <point x="428" y="143"/>
      <point x="299" y="333"/>
      <point x="299" y="682" type="curve" smooth="yes"/>
      <point x="299" y="776" type="line" smooth="yes"/>
      <point x="299" y="1122"/>
      <point x="426" y="1312"/>
      <point x="615" y="1312" type="curve" smooth="yes"/>
      <point x="814" y="1312"/>
      <point x="930" y="1122"/>
      <point x="930" y="776" type="curve"/>
    </contour>
  </outline>
</glyph>
<glyph name="uniA69D" format="2">
  <advance width="744"/>
  <unicode hex="A69D"/>
  <outline>
    <contour>
      <point x="413" y="651" type="line"/>
      <point x="577" y="651"/>
      <point x="674" y="774"/>
      <point x="674" y="914" type="curve" smooth="yes"/>
      <point x="674" y="1055"/>
      <point x="582" y="1177"/>
      <point x="425" y="1177" type="curve" smooth="yes"/>
      <point x="237" y="1177" type="line"/>
      <point x="237" y="1032" type="line"/>
      <point x="394" y="1032" type="line" smooth="yes"/>
      <point x="477" y="1032"/>
      <point x="512" y="980"/>
      <point x="512" y="915" type="curve" smooth="yes"/>
      <point x="512" y="849"/>
      <point x="474" y="796"/>
      <point x="382" y="796" type="curve" smooth="yes"/>
      <point x="269" y="796" type="line"/>
      <point x="269" y="1451" type="line"/>
      <point x="108" y="1451" type="line"/>
      <point x="108" y="651" type="line"/>
    </contour>
  </outline>
</glyph>
<glyph name="uniA714" format="2">
  <advance width="816"/>
  <unicode hex="A714"/>
  <guideline x="0.0" y="593.0" angle="0.0" identifier="kYQlI2l65x"/>
  <guideline x="0.0" y="1381.0" angle="0.0" identifier="7eHMv4VQdl"/>
  <outline>
    <contour>
      <point x="727" y="522" type="line"/>
      <point x="727" y="664" type="line"/>
      <point x="285" y="664" type="line"/>
      <point x="285" y="522" type="line"/>
    </contour>
    <contour>
      <point x="302" y="1456" type="line"/>
      <point x="161" y="1456" type="line"/>
      <point x="161" y="-270" type="line"/>
      <point x="302" y="-270" type="line"/>
    </contour>
  </outline>
</glyph>
<glyph name="uniA724" format="2">
  <advance width="593"/>
  <unicode hex="A724"/>
  <outline>
    <contour>
      <point x="494" y="1456" type="line"/>
      <point x="429" y="1456" type="line" smooth="yes"/>
      <point x="193" y="1456"/>
      <point x="87" y="1344"/>
      <point x="87" y="1178" type="curve" smooth="yes"/>
      <point x="87" y="985"/>
      <point x="188" y="850"/>
      <point x="401" y="609" type="curve"/>
      <point x="507" y="766" type="line"/>
      <point x="347" y="948"/>
      <point x="264" y="1050"/>
      <point x="264" y="1178" type="curve" smooth="yes"/>
      <point x="264" y="1244"/>
      <point x="293" y="1305"/>
      <point x="429" y="1305" type="curve" smooth="yes"/>
      <point x="493" y="1305" type="line"/>
    </contour>
  </outline>
</glyph>
<glyph name="uniA773" format="2">
  <advance width="1802"/>
  <unicode hex="A773"/>
  <outline>
    <contour>
      <point x="1729" y="800" type="line"/>
      <point x="1580" y="800" type="line"/>
      <point x="1250" y="-416" type="line"/>
      <point x="1399" y="-416" type="line"/>
    </contour>
    <contour>
      <point x="1231" y="414" type="line"/>
      <point x="1231" y="121"/>
      <point x="1346" y="-20"/>
      <point x="1627" y="-20" type="curve"/>
      <point x="1627" y="144" type="line"/>
      <point x="1490" y="135"/>
      <point x="1408" y="216"/>
      <point x="1408" y="414" type="curve" smooth="yes"/>
      <point x="1408" y="711" type="line" smooth="yes"/>
      <point x="1408" y="984"/>
      <point x="1298" y="1102"/>
      <point x="1101" y="1102" type="curve" smooth="yes"/>
      <point x="862" y="1102"/>
      <point x="737" y="883"/>
      <point x="739" y="646" type="curve"/>
      <point x="857" y="684" type="line"/>
      <point x="856" y="825"/>
      <point x="925" y="946"/>
      <point x="1047" y="946" type="curve" smooth="yes"/>
      <point x="1160" y="946"/>
      <point x="1228" y="894"/>
      <point x="1231" y="713" type="curve" smooth="yes"/>
    </contour>
    <contour>
      <point x="310" y="867" type="line"/>
      <point x="300" y="1082" type="line"/>
      <point x="134" y="1082" type="line"/>
      <point x="134" y="0" type="line"/>
      <point x="310" y="0" type="line"/>
    </contour>
    <contour>
      <point x="274" y="582" type="line"/>
      <point x="273" y="777"/>
      <point x="325" y="946"/>
      <point x="498" y="946" type="curve" smooth="yes"/>
      <point x="611" y="946"/>
      <point x="682" y="881"/>
      <point x="682" y="712" type="curve" smooth="yes"/>
      <point x="682" y="0" type="line"/>
      <point x="859" y="0" type="line"/>
      <point x="859" y="721" type="line" smooth="yes"/>
      <point x="859" y="992"/>
      <point x="731" y="1102"/>
      <point x="565" y="1102" type="curve" smooth="yes"/>
      <point x="313" y="1102"/>
      <point x="190" y="882"/>
      <point x="192" y="585" type="curve"/>
    </contour>
  </outline>
</glyph>
<glyph name="uniAB49" format="2">
  <advance width="895"/>
  <unicode hex="AB49"/>
  <outline>
    <contour>
      <point x="581" y="912" type="line"/>
      <point x="566" y="1082" type="line"/>
      <point x="404" y="1082" type="line"/>
      <point x="404" y="592" type="line"/>
      <point x="581" y="592" type="line"/>
    </contour>
    <contour>
      <point x="850" y="1088" type="line"/>
      <point x="840" y="1094"/>
      <point x="801" y="1102"/>
      <point x="780" y="1102" type="curve" smooth="yes"/>
      <point x="589" y="1102"/>
      <point x="490" y="872"/>
      <point x="490" y="612" type="curve"/>
      <point x="554" y="654" type="line"/>
      <point x="571" y="811"/>
      <point x="638" y="924"/>
      <point x="771" y="924" type="curve" smooth="yes"/>
      <point x="802" y="924"/>
      <point x="822" y="922"/>
      <point x="851" y="916" type="curve"/>
    </contour>
    <contour>
      <point x="581" y="634" type="curve"/>
      <point x="404" y="634" type="line"/>
      <point x="404" y="253" type="line" smooth="yes"/>
      <point x="404" y="184"/>
      <point x="373" y="132"/>
      <point x="311" y="132" type="curve" smooth="yes"/>
      <point x="263" y="132"/>
      <point x="230" y="180"/>
      <point x="230" y="243" type="curve" smooth="yes"/>
      <point x="230" y="306"/>
      <point x="264" y="354"/>
      <point x="320" y="354" type="curve" smooth="yes"/>
      <point x="736" y="354" type="line"/>
      <point x="736" y="354"/>
      <point x="736" y="506"/>
      <point x="736" y="506" type="curve"/>
      <point x="299" y="506" type="line" smooth="yes"/>
      <point x="160" y="506"/>
      <point x="54" y="413"/>
      <point x="54" y="243" type="curve" smooth="yes"/>
      <point x="54" y="91"/>
      <point x="160" y="-20"/>
      <point x="313" y="-20" type="curve" smooth="yes"/>
      <point x="514" y="-20"/>
      <point x="581" y="131"/>
      <point x="581" y="294" type="curve" smooth="yes"/>
      <point x="581" y="294"/>
      <point x="581" y="634"/>
    </contour>
  </outline>
</glyph>
<glyph name="cyrillichookleft" format="2">
  <advance width="522"/>
  <outline>
    <contour>
      <point x="150" y="0" type="line"/>
      <point x="204" y="-52"/>
      <point x="258" y="-112"/>
      <point x="258" y="-183" type="curve" smooth="yes"/>
      <point x="258" y="-236"/>
      <point x="231" y="-274"/>
      <point x="159" y="-274" type="curve" smooth="yes"/>
      <point x="115" y="-274"/>
      <point x="78" y="-256"/>
      <point x="58" y="-247" type="curve"/>
      <point x="30" y="-368" type="line"/>
      <point x="65" y="-388"/>
      <point x="118" y="-412"/>
      <point x="206" y="-412" type="curve" smooth="yes"/>
      <point x="320" y="-412"/>
      <point x="411" y="-340"/>
      <point x="411" y="-205" type="curve" smooth="yes"/>
      <point x="411" y="-111"/>
      <point x="359" y="-7"/>
      <point x="229" y="66" type="curve"/>
    </contour>
  </outline>
</glyph>
<glyph name="four.sup" format="2">
  <advance width="675"/>
  <outline>
    <contour>
      <point x="610" y="300" type="line"/>
      <point x="211" y="300" type="line"/>
      <point x="368" y="560" type="line"/>
      <point x="491" y="789" type="line"/>
      <point x="374" y="789" type="line"/>
      <point x="64" y="272" type="line"/>
      <point x="70" y="170" type="line"/>
      <point x="610" y="170" type="line"/>
    </contour>
    <contour>
      <point x="526" y="789" type="line"/>
      <point x="377" y="789" type="line"/>
      <point x="377" y="0" type="line"/>
      <point x="526" y="0" type="line"/>
    </contour>
  </outline>
</glyph>
<glyph name="uni02E7_uni02E6_uni02E8" format="2">
  <advance width="1061"/>
  <outline>
    <contour>
      <point x="912" y="0" type="line"/>
      <point x="912" y="1456" type="line"/>
      <point x="735" y="1456" type="line"/>
      <point x="735" y="607" type="line"/>
      <point x="481" y="1132" type="line"/>
      <point x="148" y="760" type="line"/>
      <point x="241" y="649" type="line"/>
      <point x="454" y="900" type="line"/>
      <point x="735" y="325" type="line"/>
      <point x="735" y="0" type="line"/>
    </contour>
  </outline>
</glyph>
